# xmcd
#
# Track frame offsets: 
#        150
#        18937
#        37302
#        61262
#        87317
#        126432
#        143460
#        161280
#        181220
#        198842
#        218362
#        233512
#        249852
#        269690
#        286170
#        307072
#
# Disc length: 4436 seconds
#
# Revision: 7
# Processed by: cddbd v1.5.2PL0 Copyright (c) Steve Scherf et al.
# Submitted via: ExactAudioCopy v0.99pb4
#
DISCID=d5115210
DTITLE=Chillout Room, The - Chillout Room, The
DYEAR=1998
DGENRE=Downtempo
TTITLE0=Leftfield - Original (Radio Edit)
TTITLE1=Sneaker Pimps - 6 Underground
TTITLE2=Primal Scream - Revolutionary
TTITLE3=Morcheeba - The Sea
TTITLE4=Orbital - Adnan's
TTITLE5=Mono - Life In Mono
TTITLE6=David Holmes - Don't Die Just Yet
TTITLE7=Howie B - Who's Got The Bacon
TTITLE8=Deep Forest - Sweet Lullaby (Original Mix)
TTITLE9=St Etienne - Nothing Can Stop Us
TTITLE10=Alpha - With
TTITLE11=Pressure Drop - Got To Be For Real (Tipper Vocal Edit)
TTITLE12=Craig Armstrong - Rise
TTITLE13=Smith and Mighty feat Alice Perera - DJ Kicks/I Don't Know
TTITLE14=Everything But The Girl - Single
TTITLE15=Apollo Four Forty - Stealth Requiem
EXTD=
EXTT0=
EXTT1=
EXTT2=
EXTT3=
EXTT4=
EXTT5=
EXTT6=
EXTT7=
EXTT8=
EXTT9=
EXTT10=
EXTT11=
EXTT12=
EXTT13=
EXTT14=
EXTT15=
PLAYORDER=
